<svg xmlns="http://www.w3.org/2000/svg" viewBox="0 0 512 512" height="512" width="512" id="svg8656" version="1.1">
  <defs id="defs8660"></defs>
  
  <g id="layer2">
    <path id="path8840" d="m 58.530427,108.93821 c 0,0 13.441559,-30.798909 73.083983,-55.095951 56.08213,-22.846656 121.07345,-24.875227 180.96981,-15.953262 38.64112,5.755855 78.15627,19.489699 108.6816,43.871469 25.28502,20.196134 43.04496,47.558414 51.81267,78.708754 5.45704,19.38803 7.51032,42.25898 -2.07969,59.97075 -6.39339,11.80795 -16.2713,20.06833 -29.23238,23.57737 -10.48661,2.83911 -33.46262,-1.72717 -33.46262,-1.72717" style="fill:none;fill-opacity:0.5;stroke:#000000;stroke-width:7.5;stroke-dasharray:none;stroke-opacity:1"></path>
    <path id="path9259" d="m 438.7147,287.65725 c 0.24579,2.74314 9.56499,31.87813 -24.78522,57.0901 -30.72519,18.81724 -76.91679,-7.23615 -76.91679,-7.23615" style="fill:none;fill-opacity:0.5;stroke:#000000;stroke-width:7.5;stroke-dasharray:none;stroke-opacity:1"></path>
    <path id="path9261" d="m 44.133266,135.62778 c -0.532457,1.00584 -16.339379,27.26588 -10.388981,74.14065 8.582982,56.96945 39.213544,67.18794 39.213544,67.18794 m 27.747141,12.69504 90.23563,3.90278 m 21.25575,16.01374 c 0,0 11.76965,21.02091 20.73215,28.70879 14.40903,12.35982 39.76253,12.03499 49.35541,28.41674 7.55812,12.90698 4.37627,43.10596 4.37627,43.10596" style="opacity:1;fill:none;fill-opacity:0.5;stroke:#000000;stroke-width:7.5;stroke-dasharray:none;stroke-opacity:1"></path>
    <path id="path9263" d="m 343.49367,388.36222 -0.49854,51.34956" style="opacity:1;fill:none;fill-opacity:0.5;stroke:#000000;stroke-width:7.5;stroke-dasharray:none;stroke-opacity:1"></path>
    <path id="path9265" d="m 350.47322,290.64849 24.92698,5.98247" style="opacity:1;fill:none;fill-opacity:0.5;stroke:#000000;stroke-width:7.5;stroke-dasharray:none;stroke-opacity:1"></path>
    <path id="path9267" d="m 152.93584,238.2215 c 0,0 76.33373,8.44904 110.29298,-6.40066 25.55706,-11.17559 32.19855,-32.37483 32.19855,-32.37483 m 4.10411,-29.91755 c 0,0 -1.69245,-27.31951 -6.48315,-40.0646 -4.60494,-12.25089 -16.00124,-31.427853 -16.00124,-31.427853" style="opacity:1;fill:none;fill-opacity:0.5;stroke:#000000;stroke-width:7.5;stroke-dasharray:none;stroke-opacity:1"></path>
    <circle r="15" cy="178.97565" cx="148.56474" id="path9333-0-8" style="fill:none;fill-opacity:0.5;stroke:#000000;stroke-width:7.5;stroke-dasharray:none;stroke-opacity:1"></circle>
    <path id="path9269" d="m 348.68556,87.586545 c 4.68386,-0.08343 36.99749,10.82877 60.32453,39.322365 20.48866,30.20804 22.75012,56.05506 22.75012,56.05506" style="opacity:1;fill:none;fill-opacity:0.5;stroke:#000000;stroke-width:7.5;stroke-dasharray:none;stroke-opacity:1"></path>
    <path id="path9271" d="m 349.47766,142.59999 c 0,0 12.79773,1.84687 19.80504,11.44502 6.18021,8.46525 5.34312,20.72698 5.34312,20.72698" style="opacity:1;fill:none;fill-opacity:0.5;stroke:#000000;stroke-width:7.5;stroke-dasharray:none;stroke-opacity:1"></path>
    <path id="path9273" d="m 213.87342,98.710808 c 0,0 23.92749,23.587562 29.41382,38.886082 4.09853,11.42868 2.9057,34.98329 2.9057,34.98329" style="opacity:1;fill:none;fill-opacity:0.5;stroke:#000000;stroke-width:7.5;stroke-dasharray:none;stroke-opacity:1"></path>
    <path id="path9275" d="m 89.117593,189.7975 c 0,0 -1.718618,-24.1003 10.187668,-44.69747 10.396939,-17.98609 31.750129,-28.21024 31.750129,-28.21024" style="opacity:1;fill:none;fill-opacity:0.5;stroke:#000000;stroke-width:7.5;stroke-dasharray:none;stroke-opacity:1"></path>
    <path id="path9277" d="m 181.46836,155.54431 -20.44012,15.45471" style="opacity:1;fill:none;fill-opacity:0.5;stroke:#000000;stroke-width:7.5;stroke-dasharray:none;stroke-opacity:1"></path>
    <path id="path9279" d="m 285.6631,272.20254 34.89775,-24.92698" style="opacity:1;fill:none;fill-opacity:0.5;stroke:#000000;stroke-width:7.5;stroke-dasharray:none;stroke-opacity:1"></path>
    <circle r="15" cy="122.39143" cx="51.848099" id="path9333" style="opacity:1;fill:none;fill-opacity:0.5;stroke:#000000;stroke-width:7.5;stroke-dasharray:none;stroke-opacity:1"></circle>
    <circle r="15" cy="235.31062" cx="136.10126" id="path9333-4" style="fill:none;fill-opacity:0.5;stroke:#000000;stroke-width:7.5;stroke-dasharray:none;stroke-opacity:1"></circle>
    <circle r="15" cy="108.6816" cx="144.57643" id="path9333-0" style="fill:none;fill-opacity:0.5;stroke:#000000;stroke-width:7.5;stroke-dasharray:none;stroke-opacity:1"></circle>
    <circle r="15" cy="85.748779" cx="203.90262" id="path9333-0-5" style="fill:none;fill-opacity:0.5;stroke:#000000;stroke-width:7.5;stroke-dasharray:none;stroke-opacity:1"></circle>
    <circle r="15" cy="205.39825" cx="89.737091" id="path9333-0-7" style="fill:none;fill-opacity:0.5;stroke:#000000;stroke-width:7.5;stroke-dasharray:none;stroke-opacity:1"></circle>
    <circle r="15" cy="144.57643" cx="194.92891" id="path9333-0-4" style="fill:none;fill-opacity:0.5;stroke:#000000;stroke-width:7.5;stroke-dasharray:none;stroke-opacity:1"></circle>
    <circle r="15" cy="83.256088" cx="269.70984" id="path9333-0-0" style="fill:none;fill-opacity:0.5;stroke:#000000;stroke-width:7.5;stroke-dasharray:none;stroke-opacity:1"></circle>
    <circle r="15" cy="188.94644" cx="245.77992" id="path9333-0-45" style="fill:none;fill-opacity:0.5;stroke:#000000;stroke-width:7.5;stroke-dasharray:none;stroke-opacity:1"></circle>
    <circle r="15" cy="138.36241" cx="335.1749" id="path9333-0-6" style="fill:none;fill-opacity:0.5;stroke:#000000;stroke-width:7.5;stroke-dasharray:none;stroke-opacity:1"></circle>
    <circle r="15" cy="87.244408" cx="332.52579" id="path9333-0-1" style="fill:none;fill-opacity:0.5;stroke:#000000;stroke-width:7.5;stroke-dasharray:none;stroke-opacity:1"></circle>
    <circle r="15" cy="196.92308" cx="431.73514" id="path9333-0-72" style="fill:none;fill-opacity:0.5;stroke:#000000;stroke-width:7.5;stroke-dasharray:none;stroke-opacity:1"></circle>
    <circle r="15" cy="188.619" cx="373.57339" id="path9333-0-41" style="fill:none;fill-opacity:0.5;stroke:#000000;stroke-width:7.5;stroke-dasharray:none;stroke-opacity:1"></circle>
    <circle r="15" cy="240.79457" cx="393.34763" id="path9333-0-55" style="fill:none;fill-opacity:0.5;stroke:#000000;stroke-width:7.5;stroke-dasharray:none;stroke-opacity:1"></circle>
    <circle r="15" cy="281.67477" cx="274.19669" id="path9333-0-08" style="fill:none;fill-opacity:0.5;stroke:#000000;stroke-width:7.5;stroke-dasharray:none;stroke-opacity:1"></circle>
    <circle r="15" cy="236.80623" cx="334.02142" id="path9333-0-3" style="fill:none;fill-opacity:0.5;stroke:#000000;stroke-width:7.5;stroke-dasharray:none;stroke-opacity:1"></circle>
    <circle r="15" cy="286.66016" cx="335.01849" id="path9333-0-087" style="fill:none;fill-opacity:0.5;stroke:#000000;stroke-width:7.5;stroke-dasharray:none;stroke-opacity:1"></circle>
    <circle r="15" cy="333.02432" cx="322.05646" id="path9333-0-64" style="fill:none;fill-opacity:0.5;stroke:#000000;stroke-width:7.5;stroke-dasharray:none;stroke-opacity:1"></circle>
    <circle r="15" cy="273.69815" cx="437.21909" id="path9333-0-85" style="fill:none;fill-opacity:0.5;stroke:#000000;stroke-width:7.5;stroke-dasharray:none;stroke-opacity:1"></circle>
    <circle r="15" cy="374.40311" cx="343.99222" id="path9333-0-43" style="fill:none;fill-opacity:0.5;stroke:#000000;stroke-width:7.5;stroke-dasharray:none;stroke-opacity:1"></circle>
    <circle r="15" cy="454.1694" cx="341.99805" id="path9333-0-89" style="fill:none;fill-opacity:0.5;stroke:#000000;stroke-width:7.5;stroke-dasharray:none;stroke-opacity:1"></circle>
    <circle r="15" cy="426.25119" cx="286.16165" id="path9333-0-65" style="fill:none;fill-opacity:0.5;stroke:#000000;stroke-width:7.5;stroke-dasharray:none;stroke-opacity:1"></circle>
    <circle r="15" cy="300.61926" cx="390.85492" id="path9333-0-9" style="fill:none;fill-opacity:0.5;stroke:#000000;stroke-width:7.5;stroke-dasharray:none;stroke-opacity:1"></circle>
    <circle r="15" cy="287.15869" cx="86.247314" id="path9333-0-79" style="fill:none;fill-opacity:0.5;stroke:#000000;stroke-width:7.5;stroke-dasharray:none;stroke-opacity:1"></circle>
    <circle r="15" cy="296.25339" cx="204.21973" id="path9333-0-01" style="fill:none;fill-opacity:0.5;stroke:#000000;stroke-width:7.5;stroke-dasharray:none;stroke-opacity:1"></circle>
    <circle r="15" cy="184.57538" cx="299.75784" id="path9333-0-48" style="fill:none;fill-opacity:0.5;stroke:#000000;stroke-width:7.5;stroke-dasharray:none;stroke-opacity:1"></circle>
  </g>
</svg>
